<svg width="36" height="36" viewBox="0 0 36 36" fill="none" xmlns="http://www.w3.org/2000/svg">
<path fill-rule="evenodd" clip-rule="evenodd" d="M26.9898 10.5733C26.9898 9.74976 26.3238 9.07926 25.4988 9.07476L13.5093 8.99976H13.5003C12.6753 8.99976 12.0063 9.66576 12.0003 10.4908C11.9943 11.3188 12.6618 11.9953 13.4913 11.9998L21.8283 12.0523L9.43978 24.4393C8.85328 25.0258 8.85328 25.9753 9.43978 26.5603C9.73228 26.8543 10.1163 26.9998 10.5003 26.9998C10.8843 26.9998 11.2683 26.8543 11.5608 26.5603L23.9928 14.1283L24.0003 22.5013C24.0003 23.3293 24.6723 23.9998 25.5003 23.9998H25.5018C26.3298 23.9998 27.0003 23.3263 27.0003 22.4983L26.9898 10.5733Z" fill="#231F20"/>
<mask id="mask0_16_16189" style="mask-type:luminance" maskUnits="userSpaceOnUse" x="9" y="8" width="19" height="19">
<path fill-rule="evenodd" clip-rule="evenodd" d="M26.9898 10.5733C26.9898 9.74976 26.3238 9.07926 25.4988 9.07476L13.5093 8.99976H13.5003C12.6753 8.99976 12.0063 9.66576 12.0003 10.4908C11.9943 11.3188 12.6618 11.9953 13.4913 11.9998L21.8283 12.0523L9.43978 24.4393C8.85328 25.0258 8.85328 25.9753 9.43978 26.5603C9.73228 26.8543 10.1163 26.9998 10.5003 26.9998C10.8843 26.9998 11.2683 26.8543 11.5608 26.5603L23.9928 14.1283L24.0003 22.5013C24.0003 23.3293 24.6723 23.9998 25.5003 23.9998H25.5018C26.3298 23.9998 27.0003 23.3263 27.0003 22.4983L26.9898 10.5733Z" fill="white"/>
</mask>
<g mask="url(#mask0_16_16189)">
<rect width="36" height="36" fill="#06402B"/>
</g>
</svg>
