<svg width="36" height="36" viewBox="0 0 36 36" fill="none" xmlns="http://www.w3.org/2000/svg">
<path fill-rule="evenodd" clip-rule="evenodd" d="M21 27.512C21 28.8605 19.626 30.0005 18 30.0005C16.374 30.0005 15 28.8605 15 27.512V27.0005H21V27.512ZM30.782 22.811L28.0805 20.1065V13.4045C28.0805 8.18301 24.3275 3.74901 19.349 3.08901C16.4675 2.70651 13.5575 3.58551 11.375 5.49951C9.179 7.42251 7.9205 10.19 7.9205 13.091L7.919 20.1065L5.219 22.8125C4.5155 23.516 4.307 24.566 4.688 25.4855C5.0705 26.405 5.96 27.0005 6.956 27.0005H12.0005V27.512C12.0005 30.539 14.6915 33.0005 18.0005 33.0005C21.3095 33.0005 24.0005 30.539 24.0005 27.512V27.0005H29.0435C30.0395 27.0005 30.929 26.4065 31.31 25.4855C31.6925 24.566 31.484 23.516 30.782 22.811Z" fill="#231F20"/>
<mask id="mask0_118_1007" style="mask-type:luminance" maskUnits="userSpaceOnUse" x="4" y="3" width="28" height="31">
<path fill-rule="evenodd" clip-rule="evenodd" d="M21 27.512C21 28.8605 19.626 30.0005 18 30.0005C16.374 30.0005 15 28.8605 15 27.512V27.0005H21V27.512ZM30.782 22.811L28.0805 20.1065V13.4045C28.0805 8.18301 24.3275 3.74901 19.349 3.08901C16.4675 2.70651 13.5575 3.58551 11.375 5.49951C9.179 7.42251 7.9205 10.19 7.9205 13.091L7.919 20.1065L5.219 22.8125C4.5155 23.516 4.307 24.566 4.688 25.4855C5.0705 26.405 5.96 27.0005 6.956 27.0005H12.0005V27.512C12.0005 30.539 14.6915 33.0005 18.0005 33.0005C21.3095 33.0005 24.0005 30.539 24.0005 27.512V27.0005H29.0435C30.0395 27.0005 30.929 26.4065 31.31 25.4855C31.6925 24.566 31.484 23.516 30.782 22.811Z" fill="white"/>
</mask>
<g mask="url(#mask0_118_1007)">
<rect width="36" height="36" fill="white"/>
</g>
</svg>
