<svg width="21" height="21" viewBox="0 0 21 21" fill="none" xmlns="http://www.w3.org/2000/svg">
<path fill-rule="evenodd" clip-rule="evenodd" d="M16.0139 15.5624C16.0139 16.0282 15.6359 16.4062 15.1702 16.4062C14.7044 16.4062 14.3264 16.0282 14.3264 15.5624C14.3264 15.0967 14.7044 14.7187 15.1702 14.7187C15.6359 14.7187 16.0139 15.0967 16.0139 15.5624ZM5.88895 15.5624C5.88895 16.0282 5.51095 16.4062 5.0452 16.4062C4.57945 16.4062 4.20145 16.0282 4.20145 15.5624C4.20145 15.0967 4.57945 14.7187 5.0452 14.7187C5.51095 14.7187 5.88895 15.0967 5.88895 15.5624ZM16.8577 10.9049V13.0312H14.3264V8.88076L16.8577 10.9049ZM18.229 9.84095L14.3267 6.71907V4.59367C14.3267 3.66301 13.6407 2.90617 12.7969 2.90617H3.19929C2.35638 2.90617 1.67041 3.66301 1.67041 4.59367V13.0312C1.67041 13.7678 2.10325 14.3888 2.70063 14.6191C2.5825 14.911 2.51416 15.2283 2.51416 15.5624C2.51416 16.958 3.64985 18.0937 5.04541 18.0937C6.44097 18.0937 7.57666 16.958 7.57666 15.5624C7.57666 15.2646 7.51591 14.9836 7.42057 14.7187H10.1079H12.7953C12.6999 14.9836 12.6392 15.2646 12.6392 15.5624C12.6392 16.958 13.7748 18.0937 15.1704 18.0937C16.566 18.0937 17.7017 16.958 17.7017 15.5624C17.7017 15.2646 17.6409 14.9836 17.5456 14.7187H17.7017C18.1683 14.7187 18.5454 14.3415 18.5454 13.8749V10.4999C18.5454 10.2434 18.429 10.0013 18.229 9.84095Z" fill="#231F20"/>
<mask id="mask0_77_125" style="mask-type:luminance" maskUnits="userSpaceOnUse" x="1" y="2" width="18" height="17">
<path fill-rule="evenodd" clip-rule="evenodd" d="M16.0139 15.5624C16.0139 16.0282 15.6359 16.4062 15.1702 16.4062C14.7044 16.4062 14.3264 16.0282 14.3264 15.5624C14.3264 15.0967 14.7044 14.7187 15.1702 14.7187C15.6359 14.7187 16.0139 15.0967 16.0139 15.5624ZM5.88895 15.5624C5.88895 16.0282 5.51095 16.4062 5.0452 16.4062C4.57945 16.4062 4.20145 16.0282 4.20145 15.5624C4.20145 15.0967 4.57945 14.7187 5.0452 14.7187C5.51095 14.7187 5.88895 15.0967 5.88895 15.5624ZM16.8577 10.9049V13.0312H14.3264V8.88076L16.8577 10.9049ZM18.229 9.84095L14.3267 6.71907V4.59367C14.3267 3.66301 13.6407 2.90617 12.7969 2.90617H3.19929C2.35638 2.90617 1.67041 3.66301 1.67041 4.59367V13.0312C1.67041 13.7678 2.10325 14.3888 2.70063 14.6191C2.5825 14.911 2.51416 15.2283 2.51416 15.5624C2.51416 16.958 3.64985 18.0937 5.04541 18.0937C6.44097 18.0937 7.57666 16.958 7.57666 15.5624C7.57666 15.2646 7.51591 14.9836 7.42057 14.7187H10.1079H12.7953C12.6999 14.9836 12.6392 15.2646 12.6392 15.5624C12.6392 16.958 13.7748 18.0937 15.1704 18.0937C16.566 18.0937 17.7017 16.958 17.7017 15.5624C17.7017 15.2646 17.6409 14.9836 17.5456 14.7187H17.7017C18.1683 14.7187 18.5454 14.3415 18.5454 13.8749V10.4999C18.5454 10.2434 18.429 10.0013 18.229 9.84095Z" fill="white"/>
</mask>
<g mask="url(#mask0_77_125)">
<rect y="0.375" width="20.25" height="20.25" fill="white"/>
</g>
</svg>
