<svg width="36" height="36" viewBox="0 0 36 36" fill="none" xmlns="http://www.w3.org/2000/svg">
<path fill-rule="evenodd" clip-rule="evenodd" d="M5.92249 9H30.077C30.86 9 31.5005 9.6405 31.5005 10.4235V10.5765C31.5005 11.3595 30.86 12 30.077 12H5.92249C5.13949 12 4.50049 11.3595 4.50049 10.5765V10.4235C4.50049 9.6405 5.13949 9 5.92249 9ZM30.077 16.5H5.92249C5.13949 16.5 4.50049 17.1405 4.50049 17.9235V18.0765C4.50049 18.8595 5.13949 19.5 5.92249 19.5H30.077C30.86 19.5 31.5005 18.8595 31.5005 18.0765V17.9235C31.5005 17.1405 30.86 16.5 30.077 16.5ZM30.077 24H5.92249C5.13949 24 4.50049 24.6405 4.50049 25.4235V25.5765C4.50049 26.3595 5.13949 27 5.92249 27H30.077C30.86 27 31.5005 26.3595 31.5005 25.5765V25.4235C31.5005 24.6405 30.86 24 30.077 24Z" fill="#231F20"/>
<mask id="mask0_118_1408" style="mask-type:luminance" maskUnits="userSpaceOnUse" x="4" y="9" width="28" height="18">
<path fill-rule="evenodd" clip-rule="evenodd" d="M5.92249 9H30.077C30.86 9 31.5005 9.6405 31.5005 10.4235V10.5765C31.5005 11.3595 30.86 12 30.077 12H5.92249C5.13949 12 4.50049 11.3595 4.50049 10.5765V10.4235C4.50049 9.6405 5.13949 9 5.92249 9ZM30.077 16.5H5.92249C5.13949 16.5 4.50049 17.1405 4.50049 17.9235V18.0765C4.50049 18.8595 5.13949 19.5 5.92249 19.5H30.077C30.86 19.5 31.5005 18.8595 31.5005 18.0765V17.9235C31.5005 17.1405 30.86 16.5 30.077 16.5ZM30.077 24H5.92249C5.13949 24 4.50049 24.6405 4.50049 25.4235V25.5765C4.50049 26.3595 5.13949 27 5.92249 27H30.077C30.86 27 31.5005 26.3595 31.5005 25.5765V25.4235C31.5005 24.6405 30.86 24 30.077 24Z" fill="white"/>
</mask>
<g mask="url(#mask0_118_1408)">
<rect width="36" height="36" fill="white"/>
</g>
</svg>
