<svg width="36" height="36" viewBox="0 0 36 36" fill="none" xmlns="http://www.w3.org/2000/svg">
<path fill-rule="evenodd" clip-rule="evenodd" d="M20.792 12.4644L25.085 16.9644C25.1495 17.0319 25.181 17.1159 25.2305 17.1909C25.2845 17.2719 25.349 17.3439 25.3865 17.4339C25.46 17.6154 25.5005 17.8074 25.5005 17.9994C25.5005 18.1959 25.46 18.3909 25.385 18.5739C25.3085 18.7569 25.199 18.9234 25.0595 19.0614L20.561 23.5599C19.9745 24.1464 19.025 24.1464 18.44 23.5599C17.8535 22.9749 17.8535 22.0254 18.44 21.4389L20.3795 19.4994H12.0005C11.171 19.4994 10.5005 18.8289 10.5005 17.9994C10.5005 17.1714 11.171 16.4994 12.0005 16.4994H20.495L18.6215 14.5359C18.05 13.9359 18.071 12.9879 18.671 12.4149C19.271 11.8419 20.2205 11.8659 20.792 12.4644ZM3.00045 17.9994C3.00045 26.2719 9.72945 32.9994 18.0005 32.9994C26.2715 32.9994 33.0005 26.2719 33.0005 17.9994C33.0005 9.7284 26.2715 2.9994 18.0005 2.9994C9.72945 2.9994 3.00045 9.7284 3.00045 17.9994Z" fill="#231F20"/>
<mask id="mask0_16_16133" style="mask-type:luminance" maskUnits="userSpaceOnUse" x="3" y="2" width="31" height="31">
<path fill-rule="evenodd" clip-rule="evenodd" d="M20.792 12.4644L25.085 16.9644C25.1495 17.0319 25.181 17.1159 25.2305 17.1909C25.2845 17.2719 25.349 17.3439 25.3865 17.4339C25.46 17.6154 25.5005 17.8074 25.5005 17.9994C25.5005 18.1959 25.46 18.3909 25.385 18.5739C25.3085 18.7569 25.199 18.9234 25.0595 19.0614L20.561 23.5599C19.9745 24.1464 19.025 24.1464 18.44 23.5599C17.8535 22.9749 17.8535 22.0254 18.44 21.4389L20.3795 19.4994H12.0005C11.171 19.4994 10.5005 18.8289 10.5005 17.9994C10.5005 17.1714 11.171 16.4994 12.0005 16.4994H20.495L18.6215 14.5359C18.05 13.9359 18.071 12.9879 18.671 12.4149C19.271 11.8419 20.2205 11.8659 20.792 12.4644ZM3.00045 17.9994C3.00045 26.2719 9.72945 32.9994 18.0005 32.9994C26.2715 32.9994 33.0005 26.2719 33.0005 17.9994C33.0005 9.7284 26.2715 2.9994 18.0005 2.9994C9.72945 2.9994 3.00045 9.7284 3.00045 17.9994Z" fill="white"/>
</mask>
<g mask="url(#mask0_16_16133)">
<rect width="36" height="36" fill="white"/>
</g>
</svg>
